<svg xmlns="http://www.w3.org/2000/svg" width="900" height="463" viewBox="0 0 900 463" role="img" aria-labelledby="title desc">
<title id="title">Variação em 7 dias: Investimentos EA FC: Holandeses em 03/08 — PC</title>
<desc id="desc">Gráfico gerado a partir da tabela publicada neste artigo.</desc>
<rect width="100%" height="100%" rx="20" fill="#0f172a"/>
<text x="28" y="42" fill="#f8fafc" font-family="system-ui,sans-serif" font-size="23" font-weight="700">Variação em 7 dias</text>
<text x="28" y="70" fill="#94a3b8" font-family="system-ui,sans-serif" font-size="15">Dados do recorte publicado no artigo</text>
<text x="28" y="117" fill="#e2e8f0" font-family="system-ui,sans-serif" font-size="16">Jayden Oosterwolde</text>
<rect x="285" y="95" width="480" height="28" rx="7" fill="#22c55e"/>
<text x="775" y="116" fill="#f8fafc" font-family="system-ui,sans-serif" font-size="15" font-weight="700">+58.0%</text>
<text x="28" y="175" fill="#e2e8f0" font-family="system-ui,sans-serif" font-size="16">Noah Ohio</text>
<rect x="285" y="153" width="355" height="28" rx="7" fill="#22c55e"/>
<text x="650" y="174" fill="#f8fafc" font-family="system-ui,sans-serif" font-size="15" font-weight="700">+42.9%</text>
<text x="28" y="233" fill="#e2e8f0" font-family="system-ui,sans-serif" font-size="16">Melle Meulensteen</text>
<rect x="285" y="211" width="175" height="28" rx="7" fill="#22c55e"/>
<text x="470" y="232" fill="#f8fafc" font-family="system-ui,sans-serif" font-size="15" font-weight="700">+21.2%</text>
<text x="28" y="291" fill="#e2e8f0" font-family="system-ui,sans-serif" font-size="16">Crysencio Summerville</text>
<rect x="285" y="269" width="166" height="28" rx="7" fill="#22c55e"/>
<text x="461" y="290" fill="#f8fafc" font-family="system-ui,sans-serif" font-size="15" font-weight="700">+20.0%</text>
<text x="28" y="349" fill="#e2e8f0" font-family="system-ui,sans-serif" font-size="16">Kenneth Taylor</text>
<rect x="285" y="327" width="151" height="28" rx="7" fill="#22c55e"/>
<text x="446" y="348" fill="#f8fafc" font-family="system-ui,sans-serif" font-size="15" font-weight="700">+18.3%</text>
<text x="28" y="407" fill="#e2e8f0" font-family="system-ui,sans-serif" font-size="16">Lynn Wilms</text>
<rect x="285" y="385" width="97" height="28" rx="7" fill="#22c55e"/>
<text x="392" y="406" fill="#f8fafc" font-family="system-ui,sans-serif" font-size="15" font-weight="700">+11.7%</text>
</svg>
