<svg xmlns="http://www.w3.org/2000/svg" width="900" height="463" viewBox="0 0 900 463" role="img" aria-labelledby="title desc">
<title id="title">Variação em 7 dias: Investimentos EA FC: Holandeses em 21/07 — Console (PS)</title>
<desc id="desc">Gráfico gerado a partir da tabela publicada neste artigo.</desc>
<rect width="100%" height="100%" rx="20" fill="#0f172a"/>
<text x="28" y="42" fill="#f8fafc" font-family="system-ui,sans-serif" font-size="23" font-weight="700">Variação em 7 dias</text>
<text x="28" y="70" fill="#94a3b8" font-family="system-ui,sans-serif" font-size="15">Dados do recorte publicado no artigo</text>
<text x="28" y="117" fill="#e2e8f0" font-family="system-ui,sans-serif" font-size="16">Crysencio Summerville</text>
<rect x="285" y="95" width="480" height="28" rx="7" fill="#22c55e"/>
<text x="775" y="116" fill="#f8fafc" font-family="system-ui,sans-serif" font-size="15" font-weight="700">+27.0%</text>
<text x="28" y="175" fill="#e2e8f0" font-family="system-ui,sans-serif" font-size="16">Ryan Gravenberch</text>
<rect x="285" y="153" width="226" height="28" rx="7" fill="#22c55e"/>
<text x="521" y="174" fill="#f8fafc" font-family="system-ui,sans-serif" font-size="15" font-weight="700">+12.7%</text>
<text x="28" y="233" fill="#e2e8f0" font-family="system-ui,sans-serif" font-size="16">Sepp van den Berg</text>
<rect x="285" y="211" width="167" height="28" rx="7" fill="#22c55e"/>
<text x="462" y="232" fill="#f8fafc" font-family="system-ui,sans-serif" font-size="15" font-weight="700">+9.4%</text>
<text x="28" y="291" fill="#e2e8f0" font-family="system-ui,sans-serif" font-size="16">Xavi Simons</text>
<rect x="285" y="269" width="167" height="28" rx="7" fill="#22c55e"/>
<text x="462" y="290" fill="#f8fafc" font-family="system-ui,sans-serif" font-size="15" font-weight="700">+9.4%</text>
<text x="28" y="349" fill="#e2e8f0" font-family="system-ui,sans-serif" font-size="16">Youri Baas</text>
<rect x="285" y="327" width="116" height="28" rx="7" fill="#22c55e"/>
<text x="411" y="348" fill="#f8fafc" font-family="system-ui,sans-serif" font-size="15" font-weight="700">+6.5%</text>
<text x="28" y="407" fill="#e2e8f0" font-family="system-ui,sans-serif" font-size="16">Denzel Dumfries</text>
<rect x="285" y="385" width="114" height="28" rx="7" fill="#22c55e"/>
<text x="409" y="406" fill="#f8fafc" font-family="system-ui,sans-serif" font-size="15" font-weight="700">+6.4%</text>
</svg>
