<svg xmlns="http://www.w3.org/2000/svg" width="900" height="463" viewBox="0 0 900 463" role="img" aria-labelledby="title desc">
<title id="title">Variação em 24h: Mercado EA FC em 30/07: Holandeses — PC</title>
<desc id="desc">Gráfico gerado a partir da tabela publicada neste artigo.</desc>
<rect width="100%" height="100%" rx="20" fill="#0f172a"/>
<text x="28" y="42" fill="#f8fafc" font-family="system-ui,sans-serif" font-size="23" font-weight="700">Variação em 24h</text>
<text x="28" y="70" fill="#94a3b8" font-family="system-ui,sans-serif" font-size="15">Dados do recorte publicado no artigo</text>
<text x="28" y="117" fill="#e2e8f0" font-family="system-ui,sans-serif" font-size="16">Micky van de Ven</text>
<rect x="285" y="95" width="480" height="28" rx="7" fill="#22c55e"/>
<text x="775" y="116" fill="#f8fafc" font-family="system-ui,sans-serif" font-size="15" font-weight="700">+59.3%</text>
<text x="28" y="175" fill="#e2e8f0" font-family="system-ui,sans-serif" font-size="16">Jeremie Frimpong</text>
<rect x="285" y="153" width="372" height="28" rx="7" fill="#22c55e"/>
<text x="667" y="174" fill="#f8fafc" font-family="system-ui,sans-serif" font-size="15" font-weight="700">+45.9%</text>
<text x="28" y="233" fill="#e2e8f0" font-family="system-ui,sans-serif" font-size="16">Frank Rijkaard</text>
<rect x="285" y="211" width="308" height="28" rx="7" fill="#22c55e"/>
<text x="603" y="232" fill="#f8fafc" font-family="system-ui,sans-serif" font-size="15" font-weight="700">+38.1%</text>
<text x="28" y="291" fill="#e2e8f0" font-family="system-ui,sans-serif" font-size="16">Janou Levels</text>
<rect x="285" y="269" width="170" height="28" rx="7" fill="#22c55e"/>
<text x="465" y="290" fill="#f8fafc" font-family="system-ui,sans-serif" font-size="15" font-weight="700">+21.0%</text>
<text x="28" y="349" fill="#e2e8f0" font-family="system-ui,sans-serif" font-size="16">Lineth Beerensteyn</text>
<rect x="285" y="327" width="141" height="28" rx="7" fill="#22c55e"/>
<text x="436" y="348" fill="#f8fafc" font-family="system-ui,sans-serif" font-size="15" font-weight="700">+17.4%</text>
<text x="28" y="407" fill="#e2e8f0" font-family="system-ui,sans-serif" font-size="16">Romée Leuchter</text>
<rect x="285" y="385" width="138" height="28" rx="7" fill="#22c55e"/>
<text x="433" y="406" fill="#f8fafc" font-family="system-ui,sans-serif" font-size="15" font-weight="700">+17.0%</text>
</svg>
