<svg xmlns="http://www.w3.org/2000/svg" width="900" height="463" viewBox="0 0 900 463" role="img" aria-labelledby="title desc">
<title id="title">Variação em 24h: Mercado EA FC em 21/07: Holandeses — PC</title>
<desc id="desc">Gráfico gerado a partir da tabela publicada neste artigo.</desc>
<rect width="100%" height="100%" rx="20" fill="#0f172a"/>
<text x="28" y="42" fill="#f8fafc" font-family="system-ui,sans-serif" font-size="23" font-weight="700">Variação em 24h</text>
<text x="28" y="70" fill="#94a3b8" font-family="system-ui,sans-serif" font-size="15">Dados do recorte publicado no artigo</text>
<text x="28" y="117" fill="#e2e8f0" font-family="system-ui,sans-serif" font-size="16">Xavi Simons</text>
<rect x="285" y="95" width="480" height="28" rx="7" fill="#22c55e"/>
<text x="775" y="116" fill="#f8fafc" font-family="system-ui,sans-serif" font-size="15" font-weight="700">+54.9%</text>
<text x="28" y="175" fill="#e2e8f0" font-family="system-ui,sans-serif" font-size="16">Roy Makaay</text>
<rect x="285" y="153" width="417" height="28" rx="7" fill="#22c55e"/>
<text x="712" y="174" fill="#f8fafc" font-family="system-ui,sans-serif" font-size="15" font-weight="700">+47.7%</text>
<text x="28" y="233" fill="#e2e8f0" font-family="system-ui,sans-serif" font-size="16">Patrick van Aanholt</text>
<rect x="285" y="211" width="397" height="28" rx="7" fill="#22c55e"/>
<text x="692" y="232" fill="#f8fafc" font-family="system-ui,sans-serif" font-size="15" font-weight="700">+45.4%</text>
<text x="28" y="291" fill="#e2e8f0" font-family="system-ui,sans-serif" font-size="16">Jurriën Timber</text>
<rect x="285" y="269" width="358" height="28" rx="7" fill="#22c55e"/>
<text x="653" y="290" fill="#f8fafc" font-family="system-ui,sans-serif" font-size="15" font-weight="700">+40.9%</text>
<text x="28" y="349" fill="#e2e8f0" font-family="system-ui,sans-serif" font-size="16">Youri Baas</text>
<rect x="285" y="327" width="197" height="28" rx="7" fill="#22c55e"/>
<text x="492" y="348" fill="#f8fafc" font-family="system-ui,sans-serif" font-size="15" font-weight="700">+22.5%</text>
<text x="28" y="407" fill="#e2e8f0" font-family="system-ui,sans-serif" font-size="16">Mats Deijl</text>
<rect x="285" y="385" width="179" height="28" rx="7" fill="#22c55e"/>
<text x="474" y="406" fill="#f8fafc" font-family="system-ui,sans-serif" font-size="15" font-weight="700">+20.5%</text>
</svg>
