<svg xmlns="http://www.w3.org/2000/svg" width="900" height="463" viewBox="0 0 900 463" role="img" aria-labelledby="title desc">
<title id="title">Variação em 24h: Mercado EA FC em 20/07: Holandeses — Console (PS)</title>
<desc id="desc">Gráfico gerado a partir da tabela publicada neste artigo.</desc>
<rect width="100%" height="100%" rx="20" fill="#0f172a"/>
<text x="28" y="42" fill="#f8fafc" font-family="system-ui,sans-serif" font-size="23" font-weight="700">Variação em 24h</text>
<text x="28" y="70" fill="#94a3b8" font-family="system-ui,sans-serif" font-size="15">Dados do recorte publicado no artigo</text>
<text x="28" y="117" fill="#e2e8f0" font-family="system-ui,sans-serif" font-size="16">Robin Roefs</text>
<rect x="285" y="95" width="480" height="28" rx="7" fill="#22c55e"/>
<text x="775" y="116" fill="#f8fafc" font-family="system-ui,sans-serif" font-size="15" font-weight="700">+31.9%</text>
<text x="28" y="175" fill="#e2e8f0" font-family="system-ui,sans-serif" font-size="16">Denzel Dumfries</text>
<rect x="285" y="153" width="232" height="28" rx="7" fill="#22c55e"/>
<text x="527" y="174" fill="#f8fafc" font-family="system-ui,sans-serif" font-size="15" font-weight="700">+15.4%</text>
<text x="28" y="233" fill="#e2e8f0" font-family="system-ui,sans-serif" font-size="16">Tijjani Reijnders</text>
<rect x="285" y="211" width="230" height="28" rx="7" fill="#22c55e"/>
<text x="525" y="232" fill="#f8fafc" font-family="system-ui,sans-serif" font-size="15" font-weight="700">+15.3%</text>
<text x="28" y="291" fill="#e2e8f0" font-family="system-ui,sans-serif" font-size="16">Janou Levels</text>
<rect x="285" y="269" width="190" height="28" rx="7" fill="#22c55e"/>
<text x="485" y="290" fill="#f8fafc" font-family="system-ui,sans-serif" font-size="15" font-weight="700">+12.6%</text>
<text x="28" y="349" fill="#e2e8f0" font-family="system-ui,sans-serif" font-size="16">Melle Meulensteen</text>
<rect x="285" y="327" width="158" height="28" rx="7" fill="#22c55e"/>
<text x="453" y="348" fill="#f8fafc" font-family="system-ui,sans-serif" font-size="15" font-weight="700">+10.5%</text>
<text x="28" y="407" fill="#e2e8f0" font-family="system-ui,sans-serif" font-size="16">Quinten Timber</text>
<rect x="285" y="385" width="153" height="28" rx="7" fill="#22c55e"/>
<text x="448" y="406" fill="#f8fafc" font-family="system-ui,sans-serif" font-size="15" font-weight="700">+10.2%</text>
</svg>
