<svg xmlns="http://www.w3.org/2000/svg" width="900" height="463" viewBox="0 0 900 463" role="img" aria-labelledby="title desc">
<title id="title">Variação em 24h: Mercado EA FC em 23/07: Holandeses — Console (PS)</title>
<desc id="desc">Gráfico gerado a partir da tabela publicada neste artigo.</desc>
<rect width="100%" height="100%" rx="20" fill="#0f172a"/>
<text x="28" y="42" fill="#f8fafc" font-family="system-ui,sans-serif" font-size="23" font-weight="700">Variação em 24h</text>
<text x="28" y="70" fill="#94a3b8" font-family="system-ui,sans-serif" font-size="15">Dados do recorte publicado no artigo</text>
<text x="28" y="117" fill="#e2e8f0" font-family="system-ui,sans-serif" font-size="16">Edwin van der Sar</text>
<rect x="285" y="95" width="480" height="28" rx="7" fill="#22c55e"/>
<text x="775" y="116" fill="#f8fafc" font-family="system-ui,sans-serif" font-size="15" font-weight="700">+43.6%</text>
<text x="28" y="175" fill="#e2e8f0" font-family="system-ui,sans-serif" font-size="16">Jaap Stam</text>
<rect x="285" y="153" width="423" height="28" rx="7" fill="#22c55e"/>
<text x="718" y="174" fill="#f8fafc" font-family="system-ui,sans-serif" font-size="15" font-weight="700">+38.4%</text>
<text x="28" y="233" fill="#e2e8f0" font-family="system-ui,sans-serif" font-size="16">Dominique Janssen</text>
<rect x="285" y="211" width="408" height="28" rx="7" fill="#22c55e"/>
<text x="703" y="232" fill="#f8fafc" font-family="system-ui,sans-serif" font-size="15" font-weight="700">+37.1%</text>
<text x="28" y="291" fill="#e2e8f0" font-family="system-ui,sans-serif" font-size="16">Micky van de Ven</text>
<rect x="285" y="269" width="305" height="28" rx="7" fill="#22c55e"/>
<text x="600" y="290" fill="#f8fafc" font-family="system-ui,sans-serif" font-size="15" font-weight="700">+27.7%</text>
<text x="28" y="349" fill="#e2e8f0" font-family="system-ui,sans-serif" font-size="16">Danilho Doekhi</text>
<rect x="285" y="327" width="258" height="28" rx="7" fill="#22c55e"/>
<text x="553" y="348" fill="#f8fafc" font-family="system-ui,sans-serif" font-size="15" font-weight="700">+23.4%</text>
<text x="28" y="407" fill="#e2e8f0" font-family="system-ui,sans-serif" font-size="16">Crysencio Summerville</text>
<rect x="285" y="385" width="216" height="28" rx="7" fill="#22c55e"/>
<text x="511" y="406" fill="#f8fafc" font-family="system-ui,sans-serif" font-size="15" font-weight="700">+19.6%</text>
</svg>
